<?xml version="1.0" encoding="UTF-8"?>
<svg version="1.1" xmlns="http://www.w3.org/2000/svg" width="1024" height="1024">
<path d="M0 0 C337.92 0 675.84 0 1024 0 C1024 337.92 1024 675.84 1024 1024 C686.08 1024 348.16 1024 0 1024 C0 686.08 0 348.16 0 0 Z " fill="#DDD4D0" transform="translate(0,0)"/>
<path d="M0 0 C2.84929315 1.08341876 5.71208818 2.1254027 8.57763672 3.16503906 C19.83440172 7.27267548 30.85120507 11.55388484 41.55029297 16.96972656 C42.52869141 17.46102051 43.50708984 17.95231445 44.51513672 18.45849609 C62.58642222 27.56597699 80.10921403 37.13108558 96.55029297 48.96972656 C99.24977333 50.83624384 101.95056111 52.70036666 104.66259766 54.54858398 C107.31774403 56.37058257 109.88668751 58.23884219 112.40185547 60.25097656 C119.10756001 65.58462052 124.11221574 67.14789798 132.55029297 67.96972656 C167.30602618 72.19966798 197.22196847 84.22360259 224.55029297 105.96972656 C225.12763184 106.42460449 225.7049707 106.87948242 226.29980469 107.34814453 C242.60313872 120.28587293 266.01013651 141.91991025 270.55029297 162.96972656 C272.07950868 177.39140707 265.53055688 191.90711443 256.73779297 203.09472656 C255.35359406 204.72964829 253.95762275 206.35467283 252.55029297 207.96972656 C251.53322266 209.20335937 251.53322266 209.20335937 250.49560547 210.46191406 C238.29403087 224.80882045 221.83539764 234.56870586 204.06591797 240.50878906 C198.12416041 243.95943709 195.58118336 250.42833386 193.55029297 256.71972656 C193.30102051 257.48502686 193.05174805 258.25032715 192.79492188 259.03881836 C187.87731397 274.97805796 185.78745555 291.73040358 183.61279297 308.21972656 C175.80583947 367.3146926 157.3457885 428.57194426 109.55029297 467.96972656 C108.78845703 468.63101562 108.02662109 469.29230469 107.24169922 469.97363281 C66.11677474 504.96424588 11.88856157 520.06877429 -41.44970703 516.96972656 C-78.61483685 513.39334097 -116.52183739 494.46736137 -143.44970703 468.96972656 C-145.41140149 467.25593855 -147.38615411 465.55894328 -149.36767578 463.86816406 C-155.64519714 458.14419525 -160.90328248 452.05621335 -165.94970703 445.21972656 C-166.61043213 444.32938721 -167.27115723 443.43904785 -167.9519043 442.52172852 C-172.39447335 436.49500462 -176.70898082 430.4632436 -180.44970703 423.96972656 C-181.05556641 422.94234375 -181.66142578 421.91496094 -182.28564453 420.85644531 C-206.51232828 378.46126178 -213.6809699 327.48110629 -201.37573242 280.09204102 C-199.71469925 274.49147333 -197.55408571 269.11476885 -195.32470703 263.71972656 C-194.83752197 262.53604492 -194.35033691 261.35236328 -193.84838867 260.1328125 C-190.01263016 250.98306713 -185.77303515 242.3381884 -180.44970703 233.96972656 C-180.03833496 233.32084473 -179.62696289 232.67196289 -179.203125 232.00341797 C-176.38036311 227.59118121 -173.45851697 223.25698078 -170.44970703 218.96972656 C-169.62792969 217.79410156 -169.62792969 217.79410156 -168.78955078 216.59472656 C-139.71460335 177.33239346 -93.18040798 149.31569487 -45.09521484 140.99755859 C-35.44483438 139.6344464 -25.74022892 139.6088795 -16.01220703 139.59472656 C-14.80923981 139.59146362 -14.80923981 139.59146362 -13.58197021 139.58813477 C2.06856759 139.5929455 16.84929091 141.09532248 31.98779297 145.34472656 C33.62651367 145.78171875 33.62651367 145.78171875 35.29833984 146.22753906 C41.66193057 147.9724563 47.62126247 150.06729788 53.55029297 152.96972656 C52.92198611 150.87537036 52.26745042 148.78690234 51.51831055 146.73266602 C50.55029297 143.96972656 50.55029297 143.96972656 49.90063477 141.04077148 C48.65273564 137.11938997 47.43364084 134.95230719 44.55029297 131.96972656 C37.09848984 128.45652289 28.53011743 127.46796419 20.48779297 126.03222656 C18.28307221 125.60412072 16.0792777 125.17121546 13.87646484 124.73339844 C9.53172473 123.87336749 5.18356759 123.03515595 0.83227539 122.20898438 C-21.82017532 117.83105577 -44.15974466 111.90785665 -65.44970703 102.96972656 C-66.14 102.68436035 -66.83029297 102.39899414 -67.54150391 102.10498047 C-95.27024864 90.56435502 -121.98187677 75.79352709 -145.44970703 56.96972656 C-146.11196289 56.43992187 -146.77421875 55.91011719 -147.45654297 55.36425781 C-173.46666066 34.48240879 -173.46666066 34.48240879 -174.82470703 25.48535156 C-175.01189545 21.53099619 -174.82514528 18.73766844 -173.07470703 15.15722656 C-163.81302653 7.43915947 -151.9262832 5.52227114 -140.44970703 2.96972656 C-139.35529297 2.71964844 -138.26087891 2.46957031 -137.13330078 2.21191406 C-130.55502566 0.85221236 -124.15130622 0.75920512 -117.44970703 0.96972656 C-118.43970703 -0.60808594 -118.43970703 -0.60808594 -119.44970703 -2.21777344 C-122.40594145 -7.49220608 -122.40594145 -7.49220608 -121.44970703 -11.03027344 C-96.55269111 -33.37374926 -26.88009117 -10.29825251 0 0 Z " fill="#1D363B" transform="translate(541.44970703125,234.0302734375)"/>
<path d="M0 0 C0.78067841 -0.00715027 1.56135681 -0.01430054 2.36569214 -0.02166748 C35.04890894 -0.25302866 78.35785346 2.27633299 103.13671875 26.515625 C106.41708325 29.91334496 109.559747 33.40894847 112.6484375 36.98046875 C122.81800361 48.71775702 133.63837531 58.50016699 146.26171875 67.578125 C146.95023926 68.07828125 147.63875977 68.5784375 148.34814453 69.09375 C163.05198 79.45892099 181.22910779 82.82836972 198.57421875 86.203125 C198.82605434 97.57818141 198.1130091 108.60042013 196.76171875 119.890625 C196.57641215 121.49075652 196.39152098 123.0909362 196.20703125 124.69116211 C194.96722125 135.34177658 193.58692811 145.96351046 191.95849609 156.56201172 C191.52471021 159.54339398 191.15191009 162.52965906 190.78125 165.51953125 C185.41801583 207.31336682 169.91161223 249.24512674 140.00146484 279.74072266 C138.5124954 281.26636874 137.05322504 282.81724593 135.59375 284.37109375 C117.50711173 303.34812487 95.89599727 316.77337169 71.57421875 326.203125 C70.81383301 326.50234863 70.05344727 326.80157227 69.27001953 327.10986328 C56.40377296 332.08267188 43.20505976 334.35127914 29.57421875 336.203125 C28.83292725 336.30842529 28.09163574 336.41372559 27.32788086 336.5222168 C20.65233698 337.38040293 13.98409247 337.38684626 7.26171875 337.390625 C6.09576172 337.40287109 4.92980469 337.41511719 3.72851562 337.42773438 C2.04918945 337.43063477 2.04918945 337.43063477 0.3359375 337.43359375 C-0.67509033 337.43770264 -1.68611816 337.44181152 -2.7277832 337.44604492 C-5.45876577 337.20015517 -7.09556756 336.60361222 -9.42578125 335.203125 C-4.14406705 331.26993357 1.12416971 327.42557108 6.76171875 324.015625 C45.6311838 299.54225811 60.9222458 265.18048557 71.57421875 222.203125 C71.78771973 221.37699707 72.0012207 220.55086914 72.22119141 219.69970703 C78.95499719 193.1313302 76.52744737 160.70547339 62.61816406 136.93896484 C46.9776275 110.9323664 27.66903668 92.87105816 -1.96875 85.2734375 C-22.65024946 80.21125691 -43.88989317 80.8122329 -64.42578125 86.203125 C-65.13669922 86.38504395 -65.84761719 86.56696289 -66.58007812 86.75439453 C-93.90556833 93.93214654 -116.91174371 111.01335092 -131.7265625 135.0546875 C-134.12080294 139.49091232 -135.72597926 143.49738284 -135.55078125 148.578125 C-135.50953125 149.774375 -135.46828125 150.970625 -135.42578125 152.203125 C-131.35566111 149.17662541 -128.32342428 145.93939406 -125.17578125 141.953125 C-106.33116123 118.5306106 -77.84710771 105.05005576 -48.42578125 101.203125 C-47.4821875 101.07292969 -46.53859375 100.94273437 -45.56640625 100.80859375 C-43.18326954 100.52398347 -40.82198835 100.33447855 -38.42578125 100.203125 C-37.56726563 100.15027344 -36.70875 100.09742188 -35.82421875 100.04296875 C-13.07672583 99.32231815 10.15905717 106.44451349 27.57421875 121.203125 C28.22777344 121.70070313 28.88132812 122.19828125 29.5546875 122.7109375 C43.11249728 133.48141313 52.10427505 151.26437059 54.57421875 168.203125 C55.23730724 182.03102757 55.70566041 196.64464889 52.57421875 210.203125 C52.14882813 212.11738281 52.14882813 212.11738281 51.71484375 214.0703125 C45.44016285 239.54749936 28.9027191 262.86772293 8.57421875 279.203125 C7.66671875 279.94820312 6.75921875 280.69328125 5.82421875 281.4609375 C-13.98240386 297.25671903 -43.27905031 315.99930065 -68.9375 319.55078125 C-72.40848619 319.065824 -73.94025272 317.50974125 -76.55078125 315.203125 C-80.1847553 312.08343833 -83.81766675 309.14142542 -87.73828125 306.390625 C-92.28169781 303.13505457 -96.56079354 299.65093233 -100.80078125 296.015625 C-101.38384033 295.51635498 -101.96689941 295.01708496 -102.56762695 294.50268555 C-134.27666008 267.03431862 -152.18002645 225.93938922 -156.25805664 184.65454102 C-159.47300122 137.66580958 -146.79639793 94.34853501 -116.03515625 58.41015625 C-112.28960155 54.21191034 -108.45753119 50.12877626 -104.42578125 46.203125 C-103.92949219 45.68492187 -103.43320312 45.16671875 -102.921875 44.6328125 C-77.20643065 18.02239909 -37.05103302 0.2240031 0 0 Z " fill="#DBE3E4" transform="translate(512.42578125,393.796875)"/>
<path d="M0 0 C0.77359863 0.30373535 1.54719727 0.6074707 2.34423828 0.92041016 C11.90517879 4.71063313 21.05479828 8.96243987 30.0949707 13.86206055 C38.29176564 18.2586213 46.71945516 22.13718484 55.159729 26.03604126 C63.3625168 29.82536283 71.53194524 33.65461991 79.57299805 37.77978516 C84.67189848 40.39078781 89.07061694 41.27581291 94.7265625 41.76171875 C96.32034867 41.90814999 97.91401327 42.055909 99.50756836 42.20483398 C100.7610054 42.32192215 100.7610054 42.32192215 102.0397644 42.44137573 C118.46224746 44.00485862 134.12439154 46.35477572 150 51 C150.73637695 51.20737793 151.47275391 51.41475586 152.23144531 51.62841797 C173.15988876 57.59307402 191.3098654 69.11467184 207.37011719 83.54199219 C208.9013513 84.91175404 210.45392658 86.25755208 212.0078125 87.6015625 C222.69837981 96.9818653 230.75465832 107.85168614 238 120 C238.90105469 121.47533203 238.90105469 121.47533203 239.8203125 122.98046875 C242.33877804 129.42673981 239.32434233 135.56254595 236.70141602 141.58300781 C228.38583218 159.6456829 209.22566386 171.90918211 191.125 178.8125 C167.34365342 186.68641341 144.41330528 185.20934461 122 174 C114.30025028 169.85686717 107.39385088 164.71053297 100.6875 159.125 C100.1296582 158.66061523 99.57181641 158.19623047 98.99707031 157.71777344 C96.44172663 155.51389028 95.08713253 154.26139758 94 151 C93.34 151 92.68 151 92 151 C90.19440133 148.82963392 88.52308796 146.6613632 86.875 144.375 C86.38507568 143.69928955 85.89515137 143.0235791 85.39038086 142.32739258 C74.27986936 126.75236674 64.80669284 109.7397644 67 90 C68.08203125 87.13671875 68.08203125 87.13671875 70 85 C73.6875 84.1875 73.6875 84.1875 77 84 C68.22388171 79.27318584 59.98333788 76.85361561 50.26171875 75.0546875 C45.35634948 74.12456078 40.54086654 72.89916473 35.70368958 71.66741943 C30.0175506 70.23064201 24.30916133 68.91326301 18.5859375 67.6328125 C17.68211838 67.43058075 16.77829926 67.228349 15.84709167 67.01998901 C13.98047472 66.60268098 12.11382076 66.18553849 10.24713135 65.76855469 C-22.65546285 58.39611375 -22.65546285 58.39611375 -37 54 C-38.07620605 53.67660645 -39.15241211 53.35321289 -40.26123047 53.02001953 C-79.42909057 41.11061788 -126.22340101 22.90625887 -155 -7 C-155.64453125 -7.65871094 -156.2890625 -8.31742187 -156.953125 -8.99609375 C-158.6875 -10.875 -158.6875 -10.875 -161 -14 C-160.67 -14.99 -160.34 -15.98 -160 -17 C-103.61339129 -28.8034169 -53.52907794 -21.13202753 0 0 Z " fill="#F8FBFC" transform="translate(553,276)"/>
<path d="M0 0 C7.77246774 0.67972151 15.16152148 2.70342141 22.6875 4.6875 C24.08837511 5.05421374 25.48925405 5.4209128 26.89013672 5.78759766 C30.92950359 6.84820766 34.96501112 7.92285651 39 9 C39.9988623 9.26474121 40.99772461 9.52948242 42.02685547 9.80224609 C72.12737448 17.84048431 101.89889885 28.9453467 130.75390625 40.6875 C140.03987607 44.44211596 149.44374694 47.82628873 158.91918945 51.06860352 C179.03646677 57.95569412 199.05102976 65.1075653 218.4375 73.875 C219.41992676 74.31505371 220.40235352 74.75510742 221.41455078 75.20849609 C226.62772765 77.62525539 230.74304029 80.14654358 235 84 C235.70125 84.309375 236.4025 84.61875 237.125 84.9375 C240.24780297 86.70708835 241.38641655 88.83046108 243 92 C243.04345703 93.93969727 243.04345703 93.93969727 242.8828125 96.06640625 C242.7775767 101.69594967 244.52957755 106.21366843 246.625 111.375 C246.99254395 112.30256104 247.36008789 113.23012207 247.73876953 114.18579102 C257.51076698 138.4199189 273.40664361 157.8800061 297.453125 169.015625 C302.85784126 171.10456441 308.37497671 172.63004483 314 174 C314.93199219 174.22816406 315.86398437 174.45632813 316.82421875 174.69140625 C331.72291284 177.73065483 347.36566699 176.75854454 362 173 C363.34733375 172.68222327 364.69499995 172.3658533 366.04296875 172.05078125 C372.47263111 170.48227028 377.63241734 168.91335174 383 165 C383 165.99 383 166.98 383 168 C381.00215616 169.8794306 379.04701869 171.53053721 376.875 173.1875 C376.24335937 173.6736377 375.61171875 174.15977539 374.9609375 174.66064453 C355.38405927 189.41613385 332.01553424 197.5245934 307.390625 194.56640625 C288.40479665 191.34201979 272.33209104 182.32207223 257.6875 170.125 C257.1296582 169.66061523 256.57181641 169.19623047 255.99707031 168.71777344 C253.44172663 166.51389028 252.08713253 165.26139758 251 162 C250.34 162 249.68 162 249 162 C247.19440133 159.82963392 245.52308796 157.6613632 243.875 155.375 C243.38507568 154.69928955 242.89515137 154.0235791 242.39038086 153.32739258 C231.27986936 137.75236674 221.80669284 120.7397644 224 101 C225.08203125 98.13671875 225.08203125 98.13671875 227 96 C230.6875 95.1875 230.6875 95.1875 234 95 C225.22388171 90.27318584 216.98333788 87.85361561 207.26171875 86.0546875 C202.35634948 85.12456078 197.54086654 83.89916473 192.70368958 82.66741943 C187.0175506 81.23064201 181.30916133 79.91326301 175.5859375 78.6328125 C174.68211838 78.43058075 173.77829926 78.228349 172.84709167 78.01998901 C170.98047472 77.60268098 169.11382076 77.18553849 167.24713135 76.76855469 C134.34453715 69.39611375 134.34453715 69.39611375 120 65 C118.92379395 64.67660645 117.84758789 64.35321289 116.73876953 64.02001953 C83.09033752 53.7888583 18.51640807 33.90668212 0.76171875 1.7578125 C0.51035156 1.17773438 0.25898438 0.59765625 0 0 Z " fill="#D4DEE0" transform="translate(396,265)"/>
<path d="M0 0 C3.76121692 3.1909241 6.57025787 6.12476164 7.6875 11 C6.7818399 14.95197133 5.74073387 18.92949868 3 22 C-1.75363654 23.50254805 -4.32642124 22.75791345 -8.6875 20.5625 C-15.92660223 17.38479298 -21.62694705 16.42591583 -29.1796875 19.14453125 C-35.069734 21.87353813 -39.36627627 24.49750407 -43 30 C-43.58523438 30.86238281 -44.17046875 31.72476563 -44.7734375 32.61328125 C-51.77964902 43.17979209 -53.34495369 51.09177112 -50.875 63.5 C-48.05420728 74.66509119 -41.74887292 83.79056268 -31.9375 89.91015625 C-24.90203153 93.67573085 -18.13333966 96.09327528 -10.2421875 97.40722656 C-6.58991727 98.11820673 -5.23415075 98.66373482 -3.07421875 101.765625 C-1.4654627 106.60944322 -1.17619785 110.96026923 -2 116 C-4.22902879 118.60053359 -5.75581953 118.82125195 -9.06640625 119.296875 C-25.08450423 120.24687752 -40.66379355 111.56651821 -52.43359375 101.44140625 C-64.80242596 89.67501336 -72.85616945 75.22881436 -73.35205078 58.01489258 C-73.51878026 39.74382465 -67.23134728 24.61592275 -54.64160156 11.37402344 C-41.51938645 -1.73171683 -17.22645848 -11.13189916 0 0 Z " fill="#1C3235" transform="translate(327,489)"/>
<path d="M0 0 C2.84929315 1.08341876 5.71208818 2.1254027 8.57763672 3.16503906 C19.83440172 7.27267548 30.85120507 11.55388484 41.55029297 16.96972656 C42.52869141 17.46102051 43.50708984 17.95231445 44.51513672 18.45849609 C61.76122689 27.15009896 78.75865966 36.12522444 94.42919922 47.47753906 C97.20699881 49.43171852 100.1065227 51.14471498 103.05419922 52.82910156 C104.55029297 53.96972656 104.55029297 53.96972656 105.55029297 56.96972656 C105.88029297 57.29972656 106.21029297 57.62972656 106.55029297 57.96972656 C106.59093129 59.63589771 106.59301397 61.30360751 106.55029297 62.96972656 C92.43324452 63.90218906 82.44029763 57.90976106 70.55029297 50.96972656 C69.17608301 50.18318838 67.80117762 49.3978628 66.42529297 48.61425781 C65.47654297 48.0715625 64.52779297 47.52886719 63.55029297 46.96972656 C63.55029297 46.30972656 63.55029297 45.64972656 63.55029297 44.96972656 C62.86708984 44.88464844 62.18388672 44.79957031 61.47998047 44.71191406 C57.8193278 43.78454872 54.87409763 42.03066257 51.67529297 40.09472656 C47.71454222 37.71827611 43.82643774 35.55916418 39.54199219 33.79638672 C37.12924962 32.79497138 34.74798349 31.7303985 32.36279297 30.66503906 C22.27195337 26.18927742 12.29436058 21.88800568 1.73046875 18.65185547 C-0.88313769 17.83411567 -3.4800014 16.97064384 -6.07861328 16.10644531 C-20.38126814 11.38279795 -34.75909346 7.30536973 -49.44970703 3.96972656 C-50.2013916 3.79280273 -50.95307617 3.61587891 -51.72753906 3.43359375 C-66.96857651 0.08427253 -82.53651954 -0.37562102 -98.07470703 -0.65527344 C-99.87159784 -0.69360191 -101.66847321 -0.73266123 -103.46533203 -0.77246094 C-107.79332649 -0.86677707 -112.12140535 -0.95136709 -116.44970703 -1.03027344 C-116.77970703 -0.37027344 -117.10970703 0.28972656 -117.44970703 0.96972656 C-121.21876015 -5.03720184 -121.21876015 -5.03720184 -122.07470703 -8.71777344 C-121.44970703 -11.03027344 -121.44970703 -11.03027344 -119.01220703 -13.21777344 C-87.38960115 -29.30646766 -30.87702433 -11.8295504 0 0 Z " fill="#637A80" transform="translate(541.44970703125,234.0302734375)"/>
<path d="M0 0 C2.79165591 4.04566177 4.23994034 8.36960041 5.75 13 C14.44215743 38.40470668 30.53884307 57.30345574 54.125 69.9375 C60.16672632 72.73534642 66.54792675 74.42861965 73 76 C73.93199219 76.22816406 74.86398437 76.45632813 75.82421875 76.69140625 C90.72291284 79.73065483 106.36566699 78.75854454 121 75 C122.34733375 74.68222327 123.69499995 74.3658533 125.04296875 74.05078125 C131.47263111 72.48227028 136.63241734 70.91335174 142 67 C142 67.99 142 68.98 142 70 C140.00215616 71.8794306 138.04701869 73.53053721 135.875 75.1875 C135.24335937 75.6736377 134.61171875 76.15977539 133.9609375 76.66064453 C114.38405927 91.41613385 91.01553424 99.5245934 66.390625 96.56640625 C47.40479665 93.34201979 31.33209104 84.32207223 16.6875 72.125 C16.1296582 71.66061523 15.57181641 71.19623047 14.99707031 70.71777344 C12.44172663 68.51389028 11.08713253 67.26139758 10 64 C9.34 64 8.68 64 8 64 C6.19440133 61.82963392 4.52308796 59.6613632 2.875 57.375 C2.38507568 56.69928955 1.89515137 56.0235791 1.39038086 55.32739258 C-9.72013064 39.75236674 -19.19330716 22.7397644 -17 3 C-15.75390625 0.13671875 -15.75390625 0.13671875 -14 -2 C-8.99957453 -3.94773127 -4.0689286 -3.59023112 0 0 Z " fill="#C1D1D6" transform="translate(637,363)"/>
<path d="M0 0 C1.83804703 -0.01073296 1.83804703 -0.01073296 3.71322632 -0.02168274 C5.07339452 -0.02452293 6.433563 -0.02723467 7.79373169 -0.02983093 C9.22446864 -0.03609655 10.65520396 -0.04274344 12.0859375 -0.04974365 C16.78556182 -0.0707706 21.48518643 -0.0811431 26.18484497 -0.09111023 C27.80278668 -0.09515796 29.42072822 -0.09927489 31.03866959 -0.10346031 C38.63817718 -0.12250708 46.23767508 -0.13674055 53.83720195 -0.14507228 C62.61115419 -0.15485047 71.38485454 -0.18118715 80.15871799 -0.22157317 C86.94011904 -0.25171772 93.72144779 -0.26653947 100.50291455 -0.26985329 C104.55358948 -0.27220523 108.60399514 -0.28118439 112.65459824 -0.30631447 C116.46482647 -0.3295721 120.27460768 -0.33383802 124.08488846 -0.32355309 C125.48250565 -0.32305708 126.88014469 -0.32939665 128.2776947 -0.34310913 C130.18716397 -0.36079494 132.09682686 -0.35134735 134.00634766 -0.34057617 C135.07449644 -0.34296453 136.14264523 -0.34535288 137.24316216 -0.34781361 C140.84822892 0.27028668 142.5190235 1.63815323 145.13015747 4.14717102 C146.5816365 7.05012907 146.50254773 8.91978881 146.13015747 12.14717102 C142.99775905 16.93789802 140.58369828 18.70513548 135.13015747 20.14717102 C132.19096375 20.41281986 132.19096375 20.41281986 129.05813599 20.43478394 C127.86374908 20.44764938 126.66936218 20.46051483 125.43878174 20.47377014 C124.14197479 20.4775769 122.84516785 20.48138367 121.50906372 20.48530579 C120.11891076 20.49621065 118.72876365 20.5078834 117.33862305 20.52026367 C113.57424497 20.5506718 109.8099278 20.56776147 106.04545212 20.58047986 C103.69185217 20.58858004 101.33826948 20.59876081 98.98468018 20.60949516 C91.61531076 20.64217845 84.24598362 20.66609548 76.87655163 20.67830902 C68.37858787 20.69257857 59.88145251 20.73651354 51.38376331 20.80581051 C44.80694588 20.85759014 38.23036422 20.88248168 31.65334606 20.88713115 C27.72820072 20.89052788 23.80389508 20.90536313 19.87896729 20.94841194 C16.18823609 20.98818831 12.49893011 20.99455951 8.80804825 20.97551155 C6.81242714 20.97364428 4.81686742 21.00644042 2.8215332 21.04032898 C-5.6918016 20.9511392 -5.6918016 20.9511392 -9.01873779 18.68063164 C-11.8123942 15.61819696 -13.2229164 13.13722489 -13.49484253 8.95967102 C-12.86984253 5.14717102 -12.86984253 5.14717102 -11.05734253 2.70967102 C-7.38257436 0.08483661 -4.39190392 0.01758367 0 0 Z " fill="#60787D" transform="translate(269.8698425292969,358.8528289794922)"/>
<path d="M0 0 C1.08361218 -0.02087252 1.08361218 -0.02087252 2.18911552 -0.04216671 C4.10595521 -0.07930571 6.02251044 -0.13041678 7.93899536 -0.18275452 C12.1338061 0.18200921 14.66129806 1.15652614 18.38238525 3.1166687 C20.84989765 6.81793729 20.68959681 8.73890402 20.38238525 13.1166687 C19.44049612 15.78916611 18.78801068 16.86758533 16.35260296 18.36310196 C10.19372741 20.78273629 4.93460135 21.70059145 -1.65936279 21.66256714 C-3.08380203 21.67807365 -3.08380203 21.67807365 -4.53701782 21.69389343 C-7.65129956 21.72318224 -10.76492504 21.72481953 -13.8793335 21.7260437 C-16.07439878 21.74106126 -18.26945291 21.75779575 -20.4644928 21.77615356 C-26.23746243 21.81975231 -32.01028119 21.83978603 -37.78338623 21.85488892 C-43.58304195 21.87428811 -49.38252449 21.91649708 -55.18206787 21.95651245 C-74.61243633 22.08291954 -74.61243633 22.08291954 -83.82001781 22.09087753 C-88.89787059 22.09562484 -93.97207918 22.1346334 -99.04916382 22.22665405 C-100.09766164 22.24038685 -101.14615946 22.25411964 -102.22642994 22.26826859 C-104.2250161 22.29474989 -106.22349491 22.33277543 -108.221591 22.38434982 C-113.18174413 22.43547579 -116.62264281 22.42285663 -120.61761475 19.1166687 C-122.91570936 16.28235201 -123.60384828 14.77745927 -123.68011475 11.1166687 C-122.06433744 6.55447396 -118.9584508 4.28708673 -114.61761475 2.1166687 C-112.01436573 1.88176976 -109.43412328 1.70452829 -106.82513428 1.57394409 C-106.02567446 1.53212289 -105.22621464 1.49030169 -104.40252876 1.44721317 C-94.7049128 0.97549074 -85.00451026 0.88649879 -75.29730225 0.80026245 C-73.29869244 0.7796017 -71.3000861 0.75860356 -69.30148315 0.73728943 C-64.08987515 0.68270343 -58.87823136 0.6330798 -53.66656494 0.58444214 C-49.43935967 0.54412265 -45.21219601 0.50015434 -40.98502922 0.45600796 C-35.8807998 0.40280292 -30.77655339 0.35133552 -25.67230225 0.30026245 C-24.72350063 0.29070463 -23.77469902 0.28114681 -22.79714584 0.27129936 C-18.35415184 0.2271889 -13.91126826 0.18789005 -9.46813965 0.16033936 C-6.31054353 0.13905797 -3.15651173 0.08440112 0 0 Z " fill="#587176" transform="translate(336.61761474609375,408.8833312988281)"/>
<path d="M0 0 C5.4518641 -0.09292739 10.90333976 -0.12159117 16.355896 -0.14096069 C17.82859766 -0.14707398 17.82859766 -0.14707398 19.33105087 -0.15331078 C24.50567143 -0.17396553 29.68026692 -0.18836718 34.85491943 -0.19784546 C40.18330018 -0.20900619 45.5112744 -0.2435739 50.83950996 -0.28301716 C54.9607725 -0.30913024 59.08193578 -0.31753142 63.20327377 -0.32112694 C65.16885066 -0.32598848 67.13442324 -0.3375901 69.09991837 -0.35616493 C71.83939087 -0.38049483 74.5777745 -0.37960546 77.31732178 -0.37265015 C78.12153061 -0.38546021 78.92573944 -0.39827026 79.75431824 -0.41146851 C85.92629259 -0.35438767 89.54521901 1.54445607 93.9730835 5.97232056 C95.53118602 8.91540311 95.57682164 10.81454472 95.0980835 14.09732056 C92.56772287 17.47113472 90.08619114 18.88873146 86.0980835 20.09732056 C82.7320868 20.38260268 79.37907804 20.35299968 76.00286865 20.32778931 C74.48245216 20.32805367 74.48245216 20.32805367 72.93132019 20.32832336 C69.58312182 20.32523814 66.23527395 20.30631791 62.887146 20.28482056 C60.55693581 20.27387701 58.22672544 20.26297261 55.89651489 20.25210571 C51.01244682 20.22614484 46.12853787 20.19077176 41.24456787 20.15054321 C34.99121365 20.10105295 28.73836777 20.08854534 22.4848423 20.08488464 C17.67189031 20.07563366 12.85939893 20.03977461 8.0466423 19.99664307 C5.74145624 19.98049446 3.43617894 19.97420718 1.13093948 19.97802734 C-2.09627207 19.98075403 -5.32104427 19.94592374 -8.5479126 19.90200806 C-9.49671799 19.91108688 -10.44552338 19.92016571 -11.42308044 19.92951965 C-17.21639277 19.80165457 -20.39175825 18.69285762 -24.66143227 14.72943115 C-25.9019165 13.09732056 -25.9019165 13.09732056 -26.6519165 9.53482056 C-25.70512897 5.19537769 -24.33279183 3.86969986 -20.9019165 1.09732056 C-17.66098022 0.39866638 -17.66098022 0.39866638 -13.91802979 0.29971313 C-13.2258391 0.27586202 -12.53364841 0.2520109 -11.82048225 0.22743702 C-7.8815656 0.10715908 -3.94003017 0.07900905 0 0 Z " fill="#436064" transform="translate(238.90191650390625,640.9026794433594)"/>
<path d="M0 0 C0.64922424 -0.0049649 1.29844849 -0.00992981 1.96734619 -0.01504517 C4.11544866 -0.02964863 6.26347713 -0.03646788 8.41162109 -0.04199219 C9.91034954 -0.04774782 11.40907797 -0.0535055 12.9078064 -0.05926514 C16.05344993 -0.06977182 19.19906795 -0.07561577 22.34472656 -0.07910156 C26.3559728 -0.08456703 30.36687629 -0.10855426 34.37801552 -0.13707352 C37.47688748 -0.15579755 40.57567878 -0.16091079 43.67460251 -0.16243744 C45.15204098 -0.16544562 46.62947865 -0.17341146 48.10686111 -0.18662262 C57.11003107 -0.26134411 65.38042123 -0.24984789 73.12255859 4.84863281 C75.22385125 8.22897318 75.42873742 11.36160717 74.56005859 15.16113281 C71.43155556 19.39381339 68.54467297 20.80442617 63.56005859 22.16113281 C60.25939941 22.42855835 60.25939941 22.42855835 56.64013672 22.45166016 C55.64378456 22.46173599 55.64378456 22.46173599 54.62730408 22.47201538 C52.44856126 22.49089326 50.27012792 22.49491378 48.09130859 22.49707031 C46.56725949 22.50350346 45.0432116 22.51023221 43.51916504 22.51724243 C40.33175798 22.52918824 37.1444591 22.53292585 33.95703125 22.53173828 C29.88154167 22.53153481 25.80674717 22.55887765 21.73142242 22.5932827 C18.58633257 22.61556113 15.44141007 22.61957561 12.29624939 22.61851883 C10.79399715 22.6208718 9.2917401 22.62967826 7.78956604 22.64518356 C5.68587947 22.66487204 3.58369333 22.65899724 1.47998047 22.64697266 C0.28562378 22.64982269 -0.90873291 22.65267273 -2.13928223 22.65560913 C-6.14575815 22.05539343 -8.29461669 20.67100197 -11.43994141 18.16113281 C-13.84568749 14.66892076 -14.45078502 12.79006235 -14.37744141 8.53613281 C-13.35495624 4.85518623 -12.4423304 3.45707734 -9.43994141 1.16113281 C-6.08616396 0.043207 -3.53496812 0.02055584 0 0 Z " fill="#47666C" transform="translate(284.43994140625,685.8388671875)"/>
<path d="M0 0 C8.12849684 6.72751019 12.54435129 15.95750961 17.08959961 25.25756836 C18.09653055 27.25998142 18.09653055 27.25998142 20 30 C20 30.99 20 31.98 20 33 C15.41021962 33.0992963 10.82107212 33.17166748 6.23046875 33.21972656 C4.67078756 33.23977222 3.11118087 33.26701657 1.55175781 33.30175781 C-0.69745314 33.35059126 -2.9456659 33.37303815 -5.1953125 33.390625 C-6.23161301 33.42159271 -6.23161301 33.42159271 -7.28884888 33.45318604 C-13.80401284 33.45616739 -17.24063357 30.71938083 -21.75 26.3125 C-24.66637909 22.66468178 -25.32566992 18.52908261 -26 14 C-27.11375 13.95875 -28.2275 13.9175 -29.375 13.875 C-34.9874436 13.19348899 -39.52788084 10.34162064 -44 7 C-46 4 -46 4 -46 1 C-43.79290017 0.34996375 -41.58426108 -0.29484745 -39.375 -0.9375 C-38.14523437 -1.29714844 -36.91546875 -1.65679687 -35.6484375 -2.02734375 C-24.60309918 -4.97197891 -9.97435964 -6.66707197 0 0 Z " fill="#142D33" transform="translate(730,359)"/>
<path d="M0 0 C0.55945313 0.17015625 1.11890625 0.3403125 1.6953125 0.515625 C3.43114099 1.04028056 5.16827126 1.56063695 6.90625 2.078125 C9.01273455 2.70581484 11.116833 3.34155572 13.21875 3.984375 C22.08000436 6.62649213 30.9032905 8.41314458 40 10 C40.25183779 21.37515586 39.5383098 32.39716065 38.1875 43.6875 C38.0043649 45.27151535 37.82167061 46.85558172 37.6394043 48.43969727 C34.29561772 77.20845129 34.29561772 77.20845129 32 88 C29.30291316 85.30291316 29.49672345 83.46828445 29.0703125 79.69921875 C28.91433594 78.41080078 28.75835938 77.12238281 28.59765625 75.79492188 C28.36147957 73.75977728 28.1291233 71.7242818 27.90087891 69.68823242 C26.33079206 55.88270741 22.86446827 43.95726433 16.75 31.5 C16.26982422 30.50895264 15.78964844 29.51790527 15.29492188 28.49682617 C11.26121892 20.28775727 7.02535266 12.0225423 1.28125 4.85546875 C0 3 0 3 0 0 Z " fill="#ACBBC4" transform="translate(671,470)"/>
<path d="M0 0 C4.75050819 -0.09913574 9.50040976 -0.17159264 14.25170898 -0.21972656 C15.86672458 -0.23979892 17.48166789 -0.2670633 19.09643555 -0.30175781 C21.42254501 -0.35047215 23.74769093 -0.37301154 26.07421875 -0.390625 C26.79212082 -0.41127014 27.51002289 -0.43191528 28.24967957 -0.45318604 C31.89253743 -0.45480378 33.84485457 -0.10047711 36.93286133 1.89941406 C39.35256568 4.35827035 39.9105147 5.34377444 40.375 8.75 C39.86141393 13.20107931 38.20443094 14.93489214 35 18 C30.88115012 19.70027456 27.39902436 20.24847222 22.96353149 20.24050903 C21.77730194 20.24325836 20.59107239 20.24600769 19.36889648 20.24884033 C18.08136475 20.24164978 16.79383301 20.23445923 15.46728516 20.22705078 C14.08710742 20.22648616 12.70692909 20.22680422 11.32675171 20.22793579 C7.59163593 20.22850833 3.85664927 20.21677008 0.12156343 20.20278788 C-3.78618937 20.19026401 -7.69394531 20.18910871 -11.60171509 20.18673706 C-18.99639771 20.18052715 -26.39102102 20.16412297 -33.78567755 20.14403808 C-42.20644619 20.12166384 -50.6272177 20.11068182 -59.04800868 20.10064721 C-76.3653734 20.0797563 -93.68268042 20.04458985 -111 20 C-111 19.67 -111 19.34 -111 19 C-109.79621201 18.98969254 -108.59242401 18.97938507 -107.35215759 18.96876526 C-95.81209878 18.86951444 -84.27207619 18.76668736 -72.7320776 18.66066074 C-66.80422725 18.60630394 -60.87637197 18.55305946 -54.94848633 18.50268555 C-40.3441382 18.37793512 -25.74026903 18.23125297 -11.13661957 18.04068756 C-9.06597642 18.01382762 -6.99532303 17.98774471 -4.92465973 17.96248627 C0.72141311 17.89308159 6.36683296 17.80917761 12.01226616 17.69907951 C13.68954691 17.6682944 15.36692438 17.64234116 17.04435921 17.62158394 C19.32232519 17.59221437 21.59917985 17.54462786 23.87670898 17.49194336 C25.7733152 17.45803749 25.7733152 17.45803749 27.70823669 17.42344666 C31.25760662 16.96686194 33.17489524 16.16457748 36 14 C37.34689915 11.42900598 37.34689915 11.42900598 38 9 C37.34 9 36.68 9 36 9 C35.01 6.69 34.02 4.38 33 2 C22.11 1.67 11.22 1.34 0 1 C0 0.67 0 0.34 0 0 Z " fill="#4E6066" transform="translate(376,359)"/>
<path d="M0 0 C6.41688675 -0.10349817 12.62694402 0.25492456 19 1 C19 1.66 19 2.32 19 3 C20.7325 2.9071875 20.7325 2.9071875 22.5 2.8125 C26.44846599 2.80556069 29.32427365 3.69940227 32.93359375 5.2109375 C35.11247859 6.04295024 37.21560177 6.53763466 39.5 7 C45.19704868 8.18443796 50.38256872 10.27616434 55.6875 12.625 C58.51899137 13.80033604 60.98483875 14.54315739 64 15 C64 15.66 64 16.32 64 17 C59.99517253 16.46849512 56.39040506 15.51037367 52.59570312 14.13378906 C43.39741038 10.80337272 34.01999063 8.43950464 24.5 6.25 C23.22447266 5.95657715 21.94894531 5.6631543 20.63476562 5.36083984 C13.77559662 3.80593917 6.90628122 2.33060482 0 1 C0 0.67 0 0.34 0 0 Z " fill="#DEE0DF" transform="translate(484,219)"/>
<path d="M0 0 C0.66 0.66 1.32 1.32 2 2 C-13.81308411 19.90654206 -13.81308411 19.90654206 -18 22 C-18.309375 22.66 -18.61875 23.32 -18.9375 24 C-20 26 -20 26 -23 27 C-23.66 27.66 -24.32 28.32 -25 29 C-26.81165976 30.26089283 -28.64823101 31.48628669 -30.5 32.6875 C-31.4796875 33.33074219 -32.459375 33.97398437 -33.46875 34.63671875 C-34.3040625 35.08660156 -35.139375 35.53648437 -36 36 C-36.66 35.67 -37.32 35.34 -38 35 C-37.10539063 34.31035156 -36.21078125 33.62070312 -35.2890625 32.91015625 C-22.60151619 23.07396162 -9.89556938 12.74224002 0 0 Z " fill="#95ACB4" transform="translate(559,682)"/>
<path d="M0 0 C2.91670612 4.22446838 4.47975576 8.74664687 6.125 13.5625 C6.38925781 14.31724609 6.65351562 15.07199219 6.92578125 15.84960938 C8.09341645 19.21322853 9.17322926 22.5342195 10 26 C9.01 25.34 8.02 24.68 7 24 C7 23.01 7 22.02 7 21 C6.34 21 5.68 21 5 21 C2.28414581 14.52373233 -0.10368164 7.99128319 -1 1 C-1.77085937 1.0721875 -2.54171875 1.144375 -3.3359375 1.21875 C-4.33882812 1.3115625 -5.34171875 1.404375 -6.375 1.5 C-7.37273438 1.5928125 -8.37046875 1.685625 -9.3984375 1.78125 C-12 2 -12 2 -14 2 C-14.99 2.495 -14.99 2.495 -16 3 C-15.34 1.35 -14.68 -0.3 -14 -2 C-4.26229508 -3.7608486 -4.26229508 -3.7608486 0 0 Z " fill="#9CBDC4" transform="translate(637,363)"/>
<path d="M0 0 C0 1.65 0 3.3 0 5 C-0.99 5.33 -1.98 5.66 -3 6 C-3.598125 6.928125 -4.19625 7.85625 -4.8125 8.8125 C-7.23550459 12.34316383 -9.39931505 13.7407467 -13 16 C-15.39411515 17.93073802 -17.69055447 19.96928065 -20 22 C-21.3110529 23.12668609 -22.62350515 24.25174634 -23.9375 25.375 C-24.81728516 26.12910156 -24.81728516 26.12910156 -25.71484375 26.8984375 C-26.13894531 27.26195312 -26.56304688 27.62546875 -27 28 C-25.82744291 24.66272214 -24.81131596 22.22562513 -22 20 C-21.34 20 -20.68 20 -20 20 C-19.7525 19.401875 -19.505 18.80375 -19.25 18.1875 C-17.80807503 15.66413131 -16.47450374 14.49969924 -14 13 C-13.01 13 -12.02 13 -11 13 C-10.71125 12.4225 -10.4225 11.845 -10.125 11.25 C-9.08333333 9.16666667 -8.04166667 7.08333333 -7 5 C-6.34 5 -5.68 5 -5 5 C-5 4.01 -5 3.02 -5 2 C-2 0 -2 0 0 0 Z " fill="#BBCBCF" transform="translate(603,679)"/>
<path d="M0 0 C3.83663072 1.34929464 6.65172569 3.07751025 9.8125 5.625 C10.99779297 6.57246094 10.99779297 6.57246094 12.20703125 7.5390625 C12.79871094 8.02117187 13.39039063 8.50328125 14 9 C13.67 9.66 13.34 10.32 13 11 C5.5928819 10.37727768 -1.68194135 9.29512034 -9 8 C-9 7.67 -9 7.34 -9 7 C-5.04 7.33 -1.08 7.66 3 8 C2.67 6.35 2.34 4.7 2 3 C1.34 3 0.68 3 0 3 C0 2.01 0 1.02 0 0 Z " fill="#43585B" transform="translate(645,289)"/>
<path d="M0 0 C4.75050819 -0.09913574 9.50040976 -0.17159264 14.25170898 -0.21972656 C15.86672458 -0.23979892 17.48166789 -0.2670633 19.09643555 -0.30175781 C21.42254501 -0.35047215 23.74769093 -0.37301154 26.07421875 -0.390625 C26.79212082 -0.41127014 27.51002289 -0.43191528 28.24967957 -0.45318604 C31.89253743 -0.45480378 33.84485457 -0.10047711 36.93286133 1.89941406 C39.37967281 4.38581609 39.91492034 5.36190257 40.375 8.8125 C39.88157547 13.00660847 38.14580144 14.32606877 35 17 C35.309375 16.4225 35.61875 15.845 35.9375 15.25 C36.92583364 13.15705816 37.5168613 11.25464725 38 9 C37.34 9 36.68 9 36 9 C35.01 6.69 34.02 4.38 33 2 C22.11 1.67 11.22 1.34 0 1 C0 0.67 0 0.34 0 0 Z " fill="#485B5D" transform="translate(376,359)"/>
<path d="M0 0 C14.52 0 29.04 0 44 0 C44 0.33 44 0.66 44 1 C42.78098999 1.03758423 42.78098999 1.03758423 41.53735352 1.07592773 C37.87889248 1.19149118 34.22071472 1.31439584 30.5625 1.4375 C29.28310547 1.47681641 28.00371094 1.51613281 26.68554688 1.55664062 C24.86313477 1.61948242 24.86313477 1.61948242 23.00390625 1.68359375 C21.87799072 1.72025146 20.7520752 1.75690918 19.59204102 1.79467773 C17.07146559 1.71218045 17.07146559 1.71218045 16 3 C13.29891496 2.909084 10.63069689 2.76259234 7.9375 2.5625 C6.79958008 2.48418945 6.79958008 2.48418945 5.63867188 2.40429688 C3.75878278 2.27424165 1.87934315 2.13771962 0 2 C0 1.34 0 0.68 0 0 Z " fill="#344D4A" transform="translate(248,641)"/>
<path d="M0 0 C0.433125 0.639375 0.86625 1.27875 1.3125 1.9375 C2.91239177 4.26746003 2.91239177 4.26746003 6 5 C5.84518205 7.70931419 5.51827919 9.46584039 3.59765625 11.4453125 C2.10228292 12.67679642 0.5537076 13.8429837 -1 15 C-2 14 -2 14 -2.1875 10.3125 C-2.15368121 6.5586147 -1.40222961 3.50557404 0 0 Z " fill="#476163" transform="translate(378,532)"/>
<path d="M0 0 C0.66 0.33 1.32 0.66 2 1 C2 1.99 2 2.98 2 4 C4.31 4 6.62 4 9 4 C9.66 2.68 10.32 1.36 11 0 C11.33 0.99 11.66 1.98 12 3 C10.56640625 5.04296875 10.56640625 5.04296875 8.5625 7.1875 C7.57443359 8.26064453 7.57443359 8.26064453 6.56640625 9.35546875 C5.79103516 10.16951172 5.79103516 10.16951172 5 11 C4.67 10.34 4.34 9.68 4 9 C1.97536745 8.34786708 1.97536745 8.34786708 0 8 C-1.125 2.25 -1.125 2.25 0 0 Z " fill="#354C4E" transform="translate(380,528)"/>
<path d="M0 0 C7.63054095 0.61044328 14.70189474 2.79621821 22 5 C22 5.33 22 5.66 22 6 C17.17639811 6.19294408 13.50353262 5.75747614 9 4 C8.34 5.32 7.68 6.64 7 8 C5.8274869 7.04882866 4.66212985 6.08882991 3.5 5.125 C2.8503125 4.59132813 2.200625 4.05765625 1.53125 3.5078125 C1.0259375 3.01023437 0.520625 2.51265625 0 2 C0 1.34 0 0.68 0 0 Z " fill="#C2CDD2" transform="translate(396,265)"/>
<path d="M0 0 C1.17046875 0.03609375 2.3409375 0.0721875 3.546875 0.109375 C4.43890625 0.15578125 5.3309375 0.2021875 6.25 0.25 C6.25 0.58 6.25 0.91 6.25 1.25 C5.21939453 1.30607422 5.21939453 1.30607422 4.16796875 1.36328125 C3.26691406 1.42902344 2.36585938 1.49476563 1.4375 1.5625 C0.54417969 1.62050781 -0.34914063 1.67851562 -1.26953125 1.73828125 C-3.75061186 2.09163605 -3.75061186 2.09163605 -5.5625 3.4375 C-7.24013015 5.99809339 -7.04441061 7.90836591 -6.9375 10.9375 C-6.91042969 11.93136719 -6.88335937 12.92523438 -6.85546875 13.94921875 C-6.80326172 15.08810547 -6.80326172 15.08810547 -6.75 16.25 C-9.03030304 14.53977272 -10.5479461 13.19809908 -11.15625 10.34375 C-11.31637759 6.76756707 -11.2959284 5.00793943 -9.140625 2.015625 C-5.94715967 -0.34294743 -3.92442252 -0.1569769 0 0 Z " fill="#4D6063" transform="translate(267.75,359.75)"/>
<path d="M0 0 C0.66 0.33 1.32 0.66 2 1 C0.68 1.99 -0.64 2.98 -2 4 C-2.66 3.67 -3.32 3.34 -4 3 C-2.68 2.01 -1.36 1.02 0 0 Z M-6 4 C-5.34 4.33 -4.68 4.66 -4 5 C-4.99 6.485 -4.99 6.485 -6 8 C0.93 8.33 7.86 8.66 15 9 C15 9.33 15 9.66 15 10 C11.41673499 10.05814085 7.83359162 10.09364357 4.25 10.125 C3.23421875 10.14175781 2.2184375 10.15851562 1.171875 10.17578125 C0.1921875 10.18222656 -0.7875 10.18867187 -1.796875 10.1953125 C-3.14797363 10.21102295 -3.14797363 10.21102295 -4.52636719 10.22705078 C-7.13926856 9.98721676 -8.75664666 9.32312064 -11 8 C-9.35 6.68 -7.7 5.36 -6 4 Z " fill="#8FA7AE" transform="translate(514,721)"/>
<path d="M0 0 C0.99 0.66 1.98 1.32 3 2 C2.67 5.96 2.34 9.92 2 14 C-2.69781173 15.87912469 -4.92919738 16.22365258 -9.8125 16.125 C-10.97394531 16.10695313 -12.13539063 16.08890625 -13.33203125 16.0703125 C-14.21246094 16.04710937 -15.09289062 16.02390625 -16 16 C-16 15.67 -16 15.34 -16 15 C-14.87851562 14.92652344 -14.87851562 14.92652344 -13.734375 14.8515625 C-12.25710938 14.73941406 -12.25710938 14.73941406 -10.75 14.625 C-9.77546875 14.55539062 -8.8009375 14.48578125 -7.796875 14.4140625 C-4.10506788 13.88872241 -4.10506788 13.88872241 -1 12 C-0.29464389 9.1213065 -0.29464389 9.1213065 -0.25 5.875 C-0.19328125 4.77929688 -0.1365625 3.68359375 -0.078125 2.5546875 C-0.05234375 1.71164062 -0.0265625 0.86859375 0 0 Z " fill="#E4E5E4" transform="translate(325,593)"/>
<path d="M0 0 C1.3125 2.6875 1.3125 2.6875 2 5 C1.608125 4.525625 1.21625 4.05125 0.8125 3.5625 C-1.50287041 1.56649103 -2.96587735 1.28224397 -6 1 C-8.00875442 1.27571139 -10.01178687 1.60235737 -12 2 C-12.66 2 -13.32 2 -14 2 C-14.99 2.495 -14.99 2.495 -16 3 C-15.34 1.35 -14.68 -0.3 -14 -2 C-4.15773215 -3.7797565 -4.15773215 -3.7797565 0 0 Z " fill="#8AA2AB" transform="translate(637,363)"/>
<path d="M0 0 C-1.485 2.475 -1.485 2.475 -3 5 C-2.01 6.485 -2.01 6.485 -1 8 C-1.99 8.33 -2.98 8.66 -4 9 C-6.5 6.6875 -6.5 6.6875 -9 4 C-9 3.01 -9 2.02 -9 1 C-5.92677456 0.08941469 -3.19902639 -0.08886184 0 0 Z " fill="#0D2022" transform="translate(693,359)"/>
<path d="M0 0 C2.375 0.3125 2.375 0.3125 5 1 C5.66 1.99 6.32 2.98 7 4 C9.34938888 5.17469444 10.95073205 5.20034889 13.5703125 5.31640625 C14.91416016 5.37924805 14.91416016 5.37924805 16.28515625 5.44335938 C17.22230469 5.48267578 18.15945313 5.52199219 19.125 5.5625 C20.06988281 5.60568359 21.01476562 5.64886719 21.98828125 5.69335938 C24.32537092 5.79959072 26.6625683 5.90163176 29 6 C29 6.33 29 6.66 29 7 C25.27109745 7.1164862 21.54266486 7.18734576 17.8125 7.25 C16.22985352 7.30027344 16.22985352 7.30027344 14.61523438 7.3515625 C6.78242429 7.45039922 6.78242429 7.45039922 2.82421875 5.171875 C1 3 1 3 0 0 Z " fill="#566B72" transform="translate(271,700)"/>
<path d="M0 0 C0.99 0 1.98 0 3 0 C3.22731216 6.93302093 2.42002108 13.2168636 1 20 C0.67 20 0.34 20 0 20 C-0.94870788 13.14011227 -0.94870788 6.85988773 0 0 Z " fill="#EAEDEE" transform="translate(335,521)"/>
<path d="M0 0 C-3.12403484 1.98069332 -6.24938964 3.95929402 -9.375 5.9375 C-10.26445312 6.50146484 -11.15390625 7.06542969 -12.0703125 7.64648438 C-13.34648437 8.45375977 -13.34648437 8.45375977 -14.6484375 9.27734375 C-15.43395996 9.77484131 -16.21948242 10.27233887 -17.02880859 10.78491211 C-19 12 -19 12 -21 13 C-20.25 11.0625 -20.25 11.0625 -19 9 C-17.67405895 8.63837971 -16.34061543 8.30271961 -15 8 C-14.67 7.01 -14.34 6.02 -14 5 C-10.4375 3.8125 -10.4375 3.8125 -7 3 C-7 2.34 -7 1.68 -7 1 C-3.375 -1.125 -3.375 -1.125 0 0 Z " fill="#DFE3E1" transform="translate(436,397)"/>
<path d="M0 0 C5.47576886 1.53951329 10.02157582 4.12085006 14.875 7 C16.050625 7.67675781 16.050625 7.67675781 17.25 8.3671875 C17.98992188 8.80289062 18.72984375 9.23859375 19.4921875 9.6875 C20.16620605 10.08324219 20.84022461 10.47898437 21.53466797 10.88671875 C22.26000732 11.43779297 22.26000732 11.43779297 23 12 C23 12.66 23 13.32 23 14 C18.53353784 11.79353117 14.17713513 9.40003503 9.8125 7 C8.56436523 6.32324219 8.56436523 6.32324219 7.29101562 5.6328125 C6.50017578 5.19710938 5.70933594 4.76140625 4.89453125 4.3125 C4.17112549 3.91675781 3.44771973 3.52101563 2.70239258 3.11328125 C1 2 1 2 0 0 Z " fill="#637171" transform="translate(600,261)"/>
<path d="M0 0 C0.33 0.66 0.66 1.32 1 2 C-0.62339805 3.70884005 -2.29319053 5.37446717 -4 7 C-4.66 7 -5.32 7 -6 7 C-6.226875 7.556875 -6.45375 8.11375 -6.6875 8.6875 C-8.35896766 11.63246684 -10.55276352 13.68156544 -13 16 C-13 11.93645091 -11.47015238 10.94829419 -8.75 8 C-7.96109375 7.13375 -7.1721875 6.2675 -6.359375 5.375 C-4.3351828 3.33740256 -2.34982916 1.63841299 0 0 Z " fill="#E9F2F4" transform="translate(400,523)"/>
<path d="M0 0 C1 1.33333333 2 2.66666667 3 4 C3.8353125 5.0209375 3.8353125 5.0209375 4.6875 6.0625 C6 8 6 8 6 11 C2.04 11 -1.92 11 -6 11 C-6 10.67 -6 10.34 -6 10 C-4.02 9.67 -2.04 9.34 0 9 C0 6.03 0 3.06 0 0 Z " fill="#E7E8EB" transform="translate(418,224)"/>
<path d="M0 0 C0.89332031 0.30164063 1.78664063 0.60328125 2.70703125 0.9140625 C3.60808594 1.21054687 4.50914062 1.50703125 5.4375 1.8125 C6.46810547 2.17214844 6.46810547 2.17214844 7.51953125 2.5390625 C7.84953125 1.5490625 8.17953125 0.5590625 8.51953125 -0.4609375 C9.17953125 -0.4609375 9.83953125 -0.4609375 10.51953125 -0.4609375 C10.18953125 1.1890625 9.85953125 2.8390625 9.51953125 4.5390625 C3.55549614 6.37415023 -0.23228963 4.25645302 -5.48046875 1.5390625 C-2.48046875 -0.4609375 -2.48046875 -0.4609375 0 0 Z " fill="#3C4E50" transform="translate(320.48046875,506.4609375)"/>
<path d="M0 0 C0 3.57811631 -0.86465142 4.26675381 -3 7 C-3.33 7.99 -3.66 8.98 -4 10 C-5.87617698 11.84499398 -7.92737609 13.3683599 -10 15 C-10.66 14.67 -11.32 14.34 -12 14 C-10.5645497 12.22750476 -9.12656197 10.45706424 -7.6875 8.6875 C-6.88699219 7.70136719 -6.08648437 6.71523438 -5.26171875 5.69921875 C-3.57311644 3.68397834 -1.90369301 1.80511991 0 0 Z " fill="#E6F0F6" transform="translate(402,446)"/>
<path d="M0 0 C0.66 0.33 1.32 0.66 2 1 C-2.62 5.62 -7.24 10.24 -12 15 C-12.33 14.34 -12.66 13.68 -13 13 C-11.38405168 10.95880212 -9.7143618 8.95927063 -8 7 C-7.34 7 -6.68 7 -6 7 C-5.7525 6.401875 -5.505 5.80375 -5.25 5.1875 C-3.83629988 2.71352479 -2.34944617 1.56629745 0 0 Z " fill="#A5BABD" transform="translate(589,692)"/>
<path d="M0 0 C3.3 0.99 6.6 1.98 10 3 C9.34 4.65 8.68 6.3 8 8 C5.03 6.35 2.06 4.7 -1 3 C-0.67 2.01 -0.34 1.02 0 0 Z " fill="#C9D9DC" transform="translate(534,484)"/>
<path d="M0 0 C2.97 1.32 5.94 2.64 9 4 C9 4.33 9 4.66 9 5 C6.03 5 3.06 5 0 5 C-0.66 6.65 -1.32 8.3 -2 10 C-2.6875 8.375 -2.6875 8.375 -3 6 C-1.5625 2.75 -1.5625 2.75 0 0 Z " fill="#3E575B" transform="translate(623,356)"/>
<path d="M0 0 C0.66 0.66 1.32 1.32 2 2 C-0.94259079 5.14480675 -4.00060534 7.49230126 -7.625 9.8125 C-8.58664062 10.43769531 -9.54828125 11.06289063 -10.5390625 11.70703125 C-11.35117187 12.13371094 -12.16328125 12.56039062 -13 13 C-13.66 12.67 -14.32 12.34 -15 12 C-14.00097656 11.21753906 -13.00195312 10.43507813 -11.97265625 9.62890625 C-10.66924354 8.60680564 -9.36585961 7.58466832 -8.0625 6.5625 C-7.40314453 6.04623047 -6.74378906 5.52996094 -6.06445312 4.99804688 C-5.43603516 4.50498047 -4.80761719 4.01191406 -4.16015625 3.50390625 C-3.57886963 3.04830322 -2.99758301 2.5927002 -2.39868164 2.12329102 C-1.02763998 1.06382373 -1.02763998 1.06382373 0 0 Z " fill="#8CA7AC" transform="translate(536,705)"/>
<path d="M0 0 C1.23922223 3.71766668 0.57018942 5.43889537 -0.4375 9.1875 C-0.72496094 10.27417969 -1.01242187 11.36085938 -1.30859375 12.48046875 C-1.53675781 13.31191406 -1.76492188 14.14335938 -2 15 C-2.99 15 -3.98 15 -5 15 C-5 13.02 -5 11.04 -5 9 C-4.34 9 -3.68 9 -3 9 C-3.33 7.35 -3.66 5.7 -4 4 C-3.01 4 -2.02 4 -1 4 C-0.67 2.68 -0.34 1.36 0 0 Z " fill="#DFE1E1" transform="translate(341,508)"/>
<path d="M0 0 C1.125 1.6875 1.125 1.6875 2 4 C1.125 6.75 1.125 6.75 0 9 C0.66 9 1.32 9 2 9 C1.75 12.3125 1.75 12.3125 1 16 C-1.046875 17.73046875 -1.046875 17.73046875 -3 19 C-2.68798326 16.95825942 -2.37536431 14.91661087 -2.0625 12.875 C-1.88847656 11.73804688 -1.71445312 10.60109375 -1.53515625 9.4296875 C-1.04410734 6.28267331 -0.52981281 3.14069217 0 0 Z " fill="#A0B4BA" transform="translate(586,604)"/>
<path d="M0 0 C0.33 0 0.66 0 1 0 C1.125 7.75 1.125 7.75 0 10 C-0.66 10 -1.32 10 -2 10 C-2 10.66 -2 11.32 -2 12 C-2.99 12.33 -3.98 12.66 -5 13 C-3.58192622 8.52761347 -1.88695626 4.28853694 0 0 Z " fill="#333F41" transform="translate(356,476)"/>
<path d="M0 0 C6.43082787 1.28616557 11.40420264 3.60625252 17 7 C12.85636453 8.38121182 11.26510579 7.02904675 7.375 5.1875 C6.20710937 4.64480469 5.03921875 4.10210937 3.8359375 3.54296875 C1 2 1 2 0 0 Z " fill="#DEE1DF" transform="translate(567,243)"/>
<path d="M0 0 C2.87447909 2.87447909 3.81220805 4.25388693 5 8 C5 9.32 5 10.64 5 12 C3.68 11.67 2.36 11.34 1 11 C0.67 7.37 0.34 3.74 0 0 Z " fill="#E5DEDD" transform="translate(343,620)"/>
<path d="M0 0 C2.86477505 1.31641742 5.08714106 2.77976085 7.4375 4.875 C10.23190901 7.33215275 13.07624447 9.69643504 16 12 C11.90652669 11.45661859 9.53579045 10.24314794 6.3125 7.6875 C5.54550781 7.09324219 4.77851563 6.49898437 3.98828125 5.88671875 C2.01226386 4.01163741 1.03093065 2.49738815 0 0 Z " fill="#DEE7E7" transform="translate(306,552)"/>
<path d="M0 0 C1.91595968 -0.08133791 3.83291932 -0.13934367 5.75 -0.1875 C7.35101563 -0.23970703 7.35101563 -0.23970703 8.984375 -0.29296875 C12.30027855 0.02917214 13.59016673 0.77148914 16 3 C15.67 4.32 15.34 5.64 15 7 C14.67 6.360625 14.34 5.72125 14 5.0625 C11.49247315 2.47661294 9.55264957 2.44965104 6.03515625 2.2734375 C3.69551035 1.95908968 2.04845861 1.14567036 0 0 Z " fill="#3D5354" transform="translate(340,410)"/>
<path d="M0 0 C1 2 2 4 3 6 C1.5625 8.625 1.5625 8.625 0 11 C-0.99 10.67 -1.98 10.34 -3 10 C-2.69201674 8.51988629 -2.378482 7.04092675 -2.0625 5.5625 C-1.88847656 4.73878906 -1.71445312 3.91507813 -1.53515625 3.06640625 C-1 1 -1 1 0 0 Z " fill="#A8B6B5" transform="translate(375,542)"/>
<path d="M0 0 C1.9375 0.75 1.9375 0.75 4 2 C4.75 4.125 4.75 4.125 5 6 C3.68 6.99 2.36 7.98 1 9 C0 8 0 8 -0.09765625 6.15234375 C-0.06510417 4.1015625 -0.03255208 2.05078125 0 0 Z " fill="#577273" transform="translate(376,538)"/>
<path d="M0 0 C0.66 0.33 1.32 0.66 2 1 C0.40629329 2.36646148 -1.20032982 3.71787166 -2.8125 5.0625 C-4.15248047 6.19365234 -4.15248047 6.19365234 -5.51953125 7.34765625 C-6.74736328 8.16556641 -6.74736328 8.16556641 -8 9 C-8.99 8.67 -9.98 8.34 -11 8 C-4.06451613 2.03225806 -4.06451613 2.03225806 0 0 Z " fill="#EDF5FA" transform="translate(296,508)"/>
<path d="M0 0 C2.31 0.66 4.62 1.32 7 2 C6.34 3.65 5.68 5.3 5 7 C2 6 2 6 0 3 C0 2.01 0 1.02 0 0 Z " fill="#BBC3CB" transform="translate(671,470)"/>
<path d="M0 0 C-2.02166126 1.02218828 -4.04584886 2.02101052 -6.10546875 2.96484375 C-6.79253906 3.28582031 -7.47960937 3.60679687 -8.1875 3.9375 C-8.88230469 4.25589844 -9.57710937 4.57429688 -10.29296875 4.90234375 C-12.33634383 5.96416596 -12.33634383 5.96416596 -13 9 C-13.33 7.68 -13.66 6.36 -14 5 C-9.20407947 0.20407947 -6.75190546 -0.58206082 0 0 Z " fill="#445557" transform="translate(228,412)"/>
<path d="M0 0 C-0.99 0.66 -1.98 1.32 -3 2 C-7.50102662 5.19648099 -7.50102662 5.19648099 -10 10 C-11 9 -11 9 -11.4375 6.6875 C-11 4 -11 4 -8.3125 1.6875 C-5.09055863 0.04613364 -3.52334488 -0.41451116 0 0 Z " fill="#4D6468" transform="translate(431,219)"/>
<path d="M0 0 C0.66 0.33 1.32 0.66 2 1 C1.79503906 1.60328125 1.59007812 2.2065625 1.37890625 2.828125 C1.10949219 3.62734375 0.84007812 4.4265625 0.5625 5.25 C0.29566406 6.03890625 0.02882813 6.8278125 -0.24609375 7.640625 C-1.04070807 9.95462142 -1.04070807 9.95462142 -1.41015625 12.234375 C-1.60480469 12.81703125 -1.79945313 13.3996875 -2 14 C-2.99 14.33 -3.98 14.66 -5 15 C-1.92482916 4.44191344 -1.92482916 4.44191344 0 0 Z " fill="#9DACB2" transform="translate(573,654)"/>
<path d="M0 0 C0.66 0 1.32 0 2 0 C3.2020202 7.21212121 3.2020202 7.21212121 2.375 10.4375 C0.47432396 12.59735914 -1.20399951 12.70568416 -4 13 C-3.34 12.01 -2.68 11.02 -2 10 C-1.34 10 -0.68 10 0 10 C0 6.7 0 3.4 0 0 Z " fill="#E3E3E7" transform="translate(333,647)"/>
<path d="M0 0 C1.5 1.3125 1.5 1.3125 3 3 C3 6 3 6 1.0625 8.0625 C0.381875 8.701875 -0.29875 9.34125 -1 10 C-1.33 10.66 -1.66 11.32 -2 12 C-2.66 12 -3.32 12 -4 12 C-3.71125 11.319375 -3.4225 10.63875 -3.125 9.9375 C-1.87402645 6.67106907 -0.92552045 3.37153877 0 0 Z " fill="#ACBABC" transform="translate(334,498)"/>
<path d="M0 0 C0.33 0 0.66 0 1 0 C1 2.31 1 4.62 1 7 C-0.24176695 7.70226141 -1.49385599 8.38629109 -2.75 9.0625 C-3.44609375 9.44535156 -4.1421875 9.82820313 -4.859375 10.22265625 C-7.36140628 11.1312406 -8.5332355 10.88336837 -11 10 C-9.9275 9.54625 -8.855 9.0925 -7.75 8.625 C-5.11937683 7.49911463 -2.53999604 6.32079794 0 5 C0 3.35 0 1.7 0 0 Z " fill="#485E5D" transform="translate(355,418)"/>
<path d="M0 0 C5.445 1.485 5.445 1.485 11 3 C11 3.66 11 4.32 11 5 C6.428721 4.45144652 2.32564205 3.58255197 -2 2 C-1.34 1.34 -0.68 0.68 0 0 Z " fill="#304545" transform="translate(521,263)"/>
<path d="M0 0 C1.0625 1.8125 1.0625 1.8125 2 4 C0.66667905 7.99996286 -1.4957827 8.83782337 -5 11 C-3.55049545 7.2089881 -1.84827434 3.6125362 0 0 Z " fill="#C0D0D4" transform="translate(610,664)"/>
<path d="M0 0 C0.33 0.99 0.66 1.98 1 3 C1.66 3.33 2.32 3.66 3 4 C3.4140625 5.890625 3.4140625 5.890625 3.625 8.25 C3.69847656 9.05824219 3.77195312 9.86648438 3.84765625 10.69921875 C4.0092669 13.13995394 4.07888148 15.554674 4 18 C2.36427347 15.03095016 1.51349012 12.32420253 0.875 9 C0.70742188 8.154375 0.53984375 7.30875 0.3671875 6.4375 C0 4 0 4 0 0 Z " fill="#BAC9CF" transform="translate(584,548)"/>
<path d="M0 0 C4.67461851 -0.32613618 7.16674383 0.29417212 11 3 C10.67 3.66 10.34 4.32 10 5 C8.51800098 4.55090939 7.03944764 4.09043436 5.5625 3.625 C4.73878906 3.36976563 3.91507813 3.11453125 3.06640625 2.8515625 C1 2 1 2 0 0 Z " fill="#0E2023" transform="translate(718,356)"/>
<path d="M0 0 C3.1875 0.875 3.1875 0.875 6 2 C6 3.32 6 4.64 6 6 C4.68 6 3.36 6 2 6 C1.34 5.01 0.68 4.02 0 3 C-0.99 2.67 -1.98 2.34 -3 2 C-2.01 1.34 -1.02 0.68 0 0 Z " fill="#69838C" transform="translate(562,242)"/>
<path d="M0 0 C1.95901454 0.11382653 3.9172338 0.24141125 5.875 0.375 C6.96554687 0.44460938 8.05609375 0.51421875 9.1796875 0.5859375 C12 1 12 1 14 3 C8.87160006 4.81975482 4.82315618 2.8599099 0 1 C0 0.67 0 0.34 0 0 Z " fill="#E1DFE0" transform="translate(566,362)"/>
<path d="M0 0 C1.27450447 0.59638333 2.54446877 1.20247416 3.8125 1.8125 C4.52019531 2.14894531 5.22789062 2.48539062 5.95703125 2.83203125 C8.01129035 4.00645471 9.41616278 5.25628016 11 7 C10.01 7.495 10.01 7.495 9 8 C7.49460339 7.05016642 5.99579653 6.08988109 4.5 5.125 C3.6646875 4.59132813 2.829375 4.05765625 1.96875 3.5078125 C1.3190625 3.01023437 0.669375 2.51265625 0 2 C0 1.34 0 0.68 0 0 Z " fill="#5F6B6B" transform="translate(635,282)"/>
<path d="M0 0 C1.485 0.99 1.485 0.99 3 2 C2.67 4.97 2.34 7.94 2 11 C1.34 11 0.68 11 0 11 C0 7.37 0 3.74 0 0 Z " fill="#D8E0E1" transform="translate(325,593)"/>
<path d="M0 0 C1.32 0.66 2.64 1.32 4 2 C2.37660195 3.70884005 0.70680947 5.37446717 -1 7 C-1.66 7 -2.32 7 -3 7 C-3.33 6.01 -3.66 5.02 -4 4 C-2.68 2.68 -1.36 1.36 0 0 Z " fill="#283C3D" transform="translate(400,504)"/>
<path d="M0 0 C0 3 0 3 -1.53125 4.60546875 C-2.1809375 5.12753906 -2.830625 5.64960938 -3.5 6.1875 C-4.1496875 6.71730469 -4.799375 7.24710937 -5.46875 7.79296875 C-5.9740625 8.19128906 -6.479375 8.58960938 -7 9 C-7.33 8.01 -7.66 7.02 -8 6 C-5.36 4.02 -2.72 2.04 0 0 Z " fill="#1D302E" transform="translate(409,497)"/>
<path d="M0 0 C0.33 0 0.66 0 1 0 C1.3125 2.75 1.3125 2.75 1 6 C-1.5 8.375 -1.5 8.375 -4 10 C-4 5.75354935 -2.18249194 3.61475228 0 0 Z " fill="#2D3A3A" transform="translate(366,460)"/>
<path d="M0 0 C1.31625194 2.63250388 0.74813658 3.80179056 0.0625 6.625 C-0.13214844 7.44226563 -0.32679688 8.25953125 -0.52734375 9.1015625 C-0.68332031 9.72804688 -0.83929688 10.35453125 -1 11 C-1.66 10.34 -2.32 9.68 -3 9 C-2.53846154 2.53846154 -2.53846154 2.53846154 0 0 Z " fill="#475757" transform="translate(273,689)"/>
<path d="M0 0 C7.48291572 6.15034169 7.48291572 6.15034169 10 10 C6.79424013 9.65652573 6.02483241 9.0292146 3.875 6.5 C3.25625 5.675 2.6375 4.85 2 4 C1.34 3.67 0.68 3.34 0 3 C0 2.01 0 1.02 0 0 Z " fill="#DEDEDF" transform="translate(384,690)"/>
<path d="M0 0 C0.66 0 1.32 0 2 0 C0.47291037 3.43595166 -1.59927045 6.11912454 -4 9 C-4.99 8.67 -5.98 8.34 -7 8 C-5.88200014 6.66079162 -4.75538103 5.32877444 -3.625 4 C-2.68527344 2.88625 -2.68527344 2.88625 -1.7265625 1.75 C-1.15679688 1.1725 -0.58703125 0.595 0 0 Z " fill="#1A3132" transform="translate(662,662)"/>
<path d="M0 0 C2.475 0.99 2.475 0.99 5 2 C4.67 2.66 4.34 3.32 4 4 C0.7 3.67 -2.6 3.34 -6 3 C-6 2.67 -6 2.34 -6 2 C-4.02 2 -2.04 2 0 2 C0 1.34 0 0.68 0 0 Z " fill="#30484B" transform="translate(654,296)"/>
<path d="M0 0 C0.33 0.66 0.66 1.32 1 2 C-0.98 4.64 -2.96 7.28 -5 10 C-5.33 8.68 -5.66 7.36 -6 6 C-4.78515625 4.296875 -4.78515625 4.296875 -3.0625 2.75 C-2.21365234 1.96882812 -2.21365234 1.96882812 -1.34765625 1.171875 C-0.90292969 0.78515625 -0.45820313 0.3984375 0 0 Z " fill="#E6EFF0" transform="translate(384,540)"/>
<path d="M0 0 C1.98 1.65 3.96 3.3 6 5 C5.67 5.99 5.34 6.98 5 8 C2.5 6.25 2.5 6.25 0 4 C0 2.68 0 1.36 0 0 Z " fill="#112429" transform="translate(551,500)"/>
<path d="M0 0 C1.5 1.3125 1.5 1.3125 3 3 C3 3.99 3 4.98 3 6 C1.02 6 -0.96 6 -3 6 C-2.01 4.02 -1.02 2.04 0 0 Z " fill="#2A4241" transform="translate(747,386)"/>
<path d="M0 0 C0.99 0 1.98 0 3 0 C3 2.97 3 5.94 3 9 C2.34 8.67 1.68 8.34 1 8 C0.40644386 5.35139573 0.25790731 2.70802678 0 0 Z " fill="#BCC7CE" transform="translate(708,480)"/>
<path d="M0 0 C0.99 0 1.98 0 3 0 C1.50902342 3.7952131 -0.75700849 5.61042731 -4 8 C-2.66666667 5.33333333 -1.33333333 2.66666667 0 0 Z " fill="#DFE1E0" transform="translate(378,440)"/>
<path d="M0 0 C0.66 0.66 1.32 1.32 2 2 C3.32 2 4.64 2 6 2 C6 3.65 6 5.3 6 7 C4.125 6.6875 4.125 6.6875 2 6 C0 3 0 3 0 0 Z " fill="#485459" transform="translate(214,422)"/>
<path d="M0 0 C0.99 1.32 1.98 2.64 3 4 C2.34 4.66 1.68 5.32 1 6 C0.30251417 7.31747324 -0.36959957 8.64914193 -1 10 C-1.125 2.25 -1.125 2.25 0 0 Z " fill="#DDDFE2" transform="translate(729,514)"/>
<path d="M0 0 C4.8 3.44615385 4.8 3.44615385 5.8125 6.25 C5.874375 6.8275 5.93625 7.405 6 8 C5.01 7.67 4.02 7.34 3 7 C2.3125 4.9375 2.3125 4.9375 2 3 C1.34 3 0.68 3 0 3 C0 2.01 0 1.02 0 0 Z " fill="#0F232E" transform="translate(560,510)"/>
<path d="M0 0 C2.64 0 5.28 0 8 0 C8 0.99 8 1.98 8 3 C5.36 2.67 2.72 2.34 0 2 C0 1.34 0 0.68 0 0 Z " fill="#E5F2F4" transform="translate(508,476)"/>
<path d="M0 0 C2.64 0 5.28 0 8 0 C8 0.99 8 1.98 8 3 C6.68 3.33 5.36 3.66 4 4 C3.67 3.34 3.34 2.68 3 2 C2.01 1.34 1.02 0.68 0 0 Z " fill="#1D3230" transform="translate(698,356)"/>
<path d="M0 0 C0.66 1.32 1.32 2.64 2 4 C2.66 4 3.32 4 4 4 C4.66 5.65 5.32 7.3 6 9 C3.69 7.02 1.38 5.04 -1 3 C-0.67 2.01 -0.34 1.02 0 0 Z " fill="#E6E3E6" transform="translate(775,344)"/>
<path d="M0 0 C0.99 0 1.98 0 3 0 C3.33 0.66 3.66 1.32 4 2 C5.64363134 2.72159424 7.31050386 3.39351421 9 4 C4.82412255 5.39195915 2.86525224 3.82323219 -1 2 C-0.67 1.34 -0.34 0.68 0 0 Z " fill="#E3E1E0" transform="translate(557,238)"/>
<path d="M0 0 C0 0.66 0 1.32 0 2 C-2.70879335 3.35439668 -5.00933268 3.06501451 -8 3 C-8 2.34 -8 1.68 -8 1 C-5.23735711 0.40267181 -2.83967231 0 0 0 Z " fill="#2B4948" transform="translate(404,237)"/>
</svg>
